<?xml version="1.0" encoding="UTF-8" standalone="no"?>
<!DOCTYPE svg PUBLIC "-//W3C//DTD SVG 1.1//EN" "http://www.w3.org/Graphics/SVG/1.1/DTD/svg11.dtd">
<svg width="100%" height="100%" viewBox="0 0 14 10" version="1.1" xmlns="http://www.w3.org/2000/svg" xmlnsXlink="http://www.w3.org/1999/xlink" xmlSpace="preserve" xmlnsserif="http://www.serif.com/" style="fill-rule:evenodd;clip-rule:evenodd;stroke-linejoin:round;stroke-miterlimit:2;">
    <g transform="matrix(1,0,0,1,-2.828,-4.628)">
        <rect x="15.304" y="4.628" width="0.768" height="9.844" style="fill:white;fill-rule:nonzero;"/>
        <path d="M2.828,13.326C2.828,13.318 2.83,13.309 2.837,13.297C2.843,13.285 2.855,13.28 2.875,13.28C3.133,13.28 3.333,13.249 3.476,13.189C3.618,13.129 3.724,13.044 3.791,12.937C3.86,12.829 3.902,12.701 3.918,12.553C3.934,12.404 3.945,12.244 3.953,12.072C3.975,11.568 4.005,11.079 4.038,10.605C4.071,10.13 4.103,9.663 4.135,9.204C4.166,8.745 4.193,8.291 4.217,7.842C4.24,7.393 4.252,6.942 4.252,6.488L4.252,6.272C4.252,6.182 4.223,6.103 4.164,6.034C4.105,5.966 4.035,5.908 3.955,5.861C3.876,5.815 3.795,5.779 3.713,5.756C3.631,5.733 3.566,5.721 3.519,5.721C3.488,5.721 3.473,5.705 3.473,5.674L3.473,5.416C3.473,5.408 3.475,5.399 3.478,5.387C3.482,5.375 3.496,5.369 3.519,5.369L5.594,5.369C5.637,5.377 5.672,5.392 5.699,5.413C5.726,5.435 5.752,5.463 5.775,5.498L8.324,11.182C8.351,11.248 8.387,11.281 8.43,11.281C8.473,11.281 8.504,11.272 8.523,11.252C8.543,11.233 8.559,11.207 8.57,11.176L11.09,5.604C11.129,5.529 11.168,5.472 11.207,5.431C11.246,5.39 11.285,5.369 11.324,5.369L13.387,5.369C13.41,5.369 13.424,5.375 13.428,5.387C13.432,5.399 13.434,5.408 13.434,5.416L13.434,5.674C13.434,5.682 13.431,5.692 13.425,5.703C13.419,5.715 13.406,5.721 13.387,5.721C13.379,5.721 13.333,5.729 13.249,5.744C13.165,5.76 13.073,5.79 12.974,5.835C12.874,5.88 12.783,5.944 12.701,6.028C12.619,6.112 12.578,6.223 12.578,6.359L12.918,12.6C12.922,12.713 12.952,12.809 13.009,12.887C13.065,12.965 13.135,13.03 13.217,13.08C13.299,13.131 13.386,13.169 13.477,13.194C13.569,13.221 13.655,13.239 13.735,13.253C13.815,13.267 13.884,13.275 13.94,13.276C13.997,13.278 14.027,13.28 14.031,13.28C14.051,13.28 14.063,13.285 14.069,13.297C14.075,13.309 14.078,13.318 14.078,13.326L14.078,13.584C14.078,13.592 14.075,13.602 14.069,13.613C14.063,13.625 14.051,13.631 14.031,13.631L10.176,13.631C10.144,13.631 10.129,13.615 10.129,13.584L10.129,13.326C10.129,13.295 10.144,13.28 10.176,13.28C10.269,13.28 10.376,13.275 10.495,13.265C10.614,13.255 10.728,13.233 10.838,13.197C10.947,13.162 11.039,13.11 11.113,13.042C11.187,12.974 11.225,12.883 11.225,12.77L10.955,7.983C10.951,7.943 10.941,7.924 10.926,7.924C10.91,7.924 10.894,7.942 10.879,7.977L8.312,13.531C8.293,13.574 8.267,13.602 8.233,13.613C8.2,13.625 8.142,13.631 8.06,13.631C7.92,13.631 7.815,13.627 7.747,13.619C7.679,13.611 7.633,13.58 7.609,13.525L5.113,8.024C5.101,7.996 5.093,7.976 5.087,7.962C5.081,7.948 5.07,7.942 5.055,7.942C5.027,7.942 5.014,7.967 5.014,8.018C5.014,8.135 5.008,8.307 4.996,8.533C4.984,8.76 4.969,9.015 4.949,9.298C4.93,9.581 4.91,9.881 4.891,10.197C4.871,10.514 4.851,10.82 4.832,11.117C4.812,11.414 4.797,11.691 4.785,11.946C4.773,12.202 4.768,12.412 4.768,12.576L4.768,12.817C4.783,12.891 4.822,12.957 4.885,13.016C4.947,13.074 5.025,13.123 5.119,13.162C5.213,13.201 5.316,13.231 5.43,13.25C5.543,13.27 5.662,13.28 5.787,13.28C5.807,13.28 5.817,13.285 5.819,13.297C5.821,13.309 5.822,13.318 5.822,13.326L5.822,13.584C5.822,13.615 5.81,13.631 5.787,13.631L2.875,13.631C2.844,13.631 2.828,13.615 2.828,13.584L2.828,13.326Z" style="fill:white;fill-rule:nonzero;"/>
    </g>
</svg>
